<mxfile host="Electron" modified="2024-02-05T08:47:25.889Z" agent="Mozilla/5.0 (Windows NT 10.0; Win64; x64) AppleWebKit/537.36 (KHTML, like Gecko) draw.io/23.0.2 Chrome/120.0.6099.109 Electron/28.1.0 Safari/537.36" etag="B1Rkqa6vVPrbfgtOYqDV" version="23.0.2" type="device">
  <diagram name="Page-1" id="dr9L2S6FgHp72UqZz3NM">
    <mxGraphModel dx="640" dy="412" grid="0" gridSize="10" guides="1" tooltips="1" connect="1" arrows="1" fold="1" page="1" pageScale="1" pageWidth="850" pageHeight="1100" math="0" shadow="0">
      <root>
        <mxCell id="0" />
        <mxCell id="1" parent="0" />
        <mxCell id="gFYFz_WKTax_zrVEPNrN-1" value="" style="whiteSpace=wrap;html=1;aspect=fixed;" vertex="1" parent="1">
          <mxGeometry x="355" y="220" width="109" height="109" as="geometry" />
        </mxCell>
        <mxCell id="gFYFz_WKTax_zrVEPNrN-2" value="" style="endArrow=none;html=1;rounded=0;" edge="1" parent="1">
          <mxGeometry width="50" height="50" relative="1" as="geometry">
            <mxPoint x="266" y="275" as="sourcePoint" />
            <mxPoint x="355" y="274.36" as="targetPoint" />
          </mxGeometry>
        </mxCell>
        <mxCell id="gFYFz_WKTax_zrVEPNrN-3" value="" style="endArrow=none;html=1;rounded=0;entryX=0;entryY=0.25;entryDx=0;entryDy=0;" edge="1" parent="1" target="gFYFz_WKTax_zrVEPNrN-1">
          <mxGeometry width="50" height="50" relative="1" as="geometry">
            <mxPoint x="266" y="248" as="sourcePoint" />
            <mxPoint x="331" y="239" as="targetPoint" />
          </mxGeometry>
        </mxCell>
        <mxCell id="gFYFz_WKTax_zrVEPNrN-6" value="" style="endArrow=none;html=1;rounded=0;" edge="1" parent="1">
          <mxGeometry width="50" height="50" relative="1" as="geometry">
            <mxPoint x="266" y="301.64" as="sourcePoint" />
            <mxPoint x="355" y="301" as="targetPoint" />
          </mxGeometry>
        </mxCell>
        <mxCell id="gFYFz_WKTax_zrVEPNrN-8" value="" style="endArrow=none;html=1;rounded=0;" edge="1" parent="1">
          <mxGeometry width="50" height="50" relative="1" as="geometry">
            <mxPoint x="464" y="260.64" as="sourcePoint" />
            <mxPoint x="553" y="260" as="targetPoint" />
          </mxGeometry>
        </mxCell>
        <mxCell id="gFYFz_WKTax_zrVEPNrN-9" value="" style="endArrow=none;html=1;rounded=0;" edge="1" parent="1">
          <mxGeometry width="50" height="50" relative="1" as="geometry">
            <mxPoint x="464" y="286.64" as="sourcePoint" />
            <mxPoint x="553" y="286" as="targetPoint" />
          </mxGeometry>
        </mxCell>
        <mxCell id="gFYFz_WKTax_zrVEPNrN-10" value="&lt;font style=&quot;font-size: 18px;&quot; face=&quot;Comic Sans MS&quot;&gt;Inputs&lt;/font&gt;" style="text;html=1;strokeColor=none;fillColor=none;align=center;verticalAlign=middle;whiteSpace=wrap;rounded=0;" vertex="1" parent="1">
          <mxGeometry x="281" y="204" width="53" height="25" as="geometry" />
        </mxCell>
        <mxCell id="gFYFz_WKTax_zrVEPNrN-11" value="&lt;font face=&quot;Comic Sans MS&quot; style=&quot;font-size: 18px;&quot;&gt;a&lt;/font&gt;" style="text;html=1;strokeColor=none;fillColor=none;align=center;verticalAlign=middle;whiteSpace=wrap;rounded=0;" vertex="1" parent="1">
          <mxGeometry x="221" y="233" width="60" height="30" as="geometry" />
        </mxCell>
        <mxCell id="gFYFz_WKTax_zrVEPNrN-12" value="&lt;font face=&quot;Comic Sans MS&quot; style=&quot;font-size: 18px;&quot;&gt;b&lt;/font&gt;" style="text;html=1;strokeColor=none;fillColor=none;align=center;verticalAlign=middle;whiteSpace=wrap;rounded=0;" vertex="1" parent="1">
          <mxGeometry x="221" y="259.5" width="60" height="30" as="geometry" />
        </mxCell>
        <mxCell id="gFYFz_WKTax_zrVEPNrN-13" value="&lt;font style=&quot;font-size: 18px;&quot; face=&quot;Comic Sans MS&quot;&gt;c&lt;/font&gt;" style="text;html=1;strokeColor=none;fillColor=none;align=center;verticalAlign=middle;whiteSpace=wrap;rounded=0;" vertex="1" parent="1">
          <mxGeometry x="221" y="287" width="60" height="30" as="geometry" />
        </mxCell>
        <mxCell id="gFYFz_WKTax_zrVEPNrN-14" value="&lt;font style=&quot;font-size: 18px;&quot; face=&quot;Comic Sans MS&quot;&gt;x&lt;/font&gt;" style="text;html=1;strokeColor=none;fillColor=none;align=center;verticalAlign=middle;whiteSpace=wrap;rounded=0;" vertex="1" parent="1">
          <mxGeometry x="542" y="245" width="60" height="30" as="geometry" />
        </mxCell>
        <mxCell id="gFYFz_WKTax_zrVEPNrN-15" value="&lt;font style=&quot;font-size: 18px;&quot; face=&quot;Comic Sans MS&quot;&gt;y&lt;/font&gt;" style="text;html=1;strokeColor=none;fillColor=none;align=center;verticalAlign=middle;whiteSpace=wrap;rounded=0;" vertex="1" parent="1">
          <mxGeometry x="542" y="271" width="60" height="30" as="geometry" />
        </mxCell>
        <mxCell id="gFYFz_WKTax_zrVEPNrN-16" value="&lt;font face=&quot;Comic Sans MS&quot; style=&quot;font-size: 18px;&quot;&gt;Logic&lt;br&gt;circuit&lt;/font&gt;" style="text;html=1;strokeColor=none;fillColor=none;align=center;verticalAlign=middle;whiteSpace=wrap;rounded=0;" vertex="1" parent="1">
          <mxGeometry x="379.5" y="259.5" width="60" height="30" as="geometry" />
        </mxCell>
        <mxCell id="gFYFz_WKTax_zrVEPNrN-18" value="&lt;font style=&quot;font-size: 18px;&quot; face=&quot;Comic Sans MS&quot;&gt;Outputs&lt;/font&gt;" style="text;html=1;strokeColor=none;fillColor=none;align=center;verticalAlign=middle;whiteSpace=wrap;rounded=0;" vertex="1" parent="1">
          <mxGeometry x="482" y="207" width="60" height="30" as="geometry" />
        </mxCell>
      </root>
    </mxGraphModel>
  </diagram>
</mxfile>
